<svg id="Layer_1" data-name="Layer 1" xmlns="http://www.w3.org/2000/svg" viewBox="0 0 218.54 143.71"><defs><style>.cls-1{font-size:90px;font-family:Righteous-Regular, Righteous;}.cls-1,.cls-2{fill:#ea3d67;}</style></defs><text class="cls-1" transform="translate(0 120.59)">onme</text><path class="cls-2" d="M140.49,63a.75.75,0,0,0,.37.76l4.28,2.52.82.49a9,9,0,0,0,3.51-.63A11.11,11.11,0,0,0,153,63.55l1.82-5.43L141,62.32A.73.73,0,0,0,140.49,63Z" transform="translate(1 -39)"/><path class="cls-2" d="M158.28,60.55c.58-1.2,1-2.12,1.19-2.47a.78.78,0,0,0-.92-1.08l-1.91.58L155.18,62l.56-.32A17.36,17.36,0,0,1,158.28,60.55Z" transform="translate(1 -39)"/><path class="cls-2" d="M182.27,68.87a29.87,29.87,0,1,0-13,24.66A1.22,1.22,0,0,1,171,94c.77,1.39,1.42,2.71,1.84,3.61a.72.72,0,0,0,1.28,0c1.45-2.72,1.73-6.58,1.65-9.72a1.22,1.22,0,0,1,.26-.78A29.76,29.76,0,0,0,182.27,68.87Zm-20.9,13.76-8.5,2.58a1.18,1.18,0,0,1-1.5-.89,1.22,1.22,0,0,1,.87-1.39l2.12-.65a1,1,0,0,0,.7-1.31l-2-6.69a3.42,3.42,0,0,0-1.53-1.93h0l-11.65-6.88a2.76,2.76,0,0,1-1.31-3,2.86,2.86,0,0,1,2-2.08l15.11-4.59,2-5.89a.66.66,0,0,1,.84-.42l.18.06a.66.66,0,0,1,.42.84l-1.63,4.87.54-.17a2.76,2.76,0,0,1,3.1,1.08,2.83,2.83,0,0,1,.19,2.88l-5.82,12.12h0a3.38,3.38,0,0,0-.19,2.46l2,6.68a1.06,1.06,0,0,0,1.31.71l2.17-.66a1.19,1.19,0,0,1,1.51.89A1.22,1.22,0,0,1,161.37,82.63Z" transform="translate(1 -39)"/></svg>